<?xml version="1.0" encoding="UTF-8"?>
<svg width="553px" height="593px" viewBox="0 0 553 593" version="1.1" xmlns="http://www.w3.org/2000/svg"
     xmlns:xlink="http://www.w3.org/1999/xlink">
    <title>undraw_develop_app_re_bi4i</title>
    <g id="Page-1" stroke="none" stroke-width="1" fill="none" fill-rule="evenodd">
        <g id="Desktop" transform="translate(-166.000000, -484.000000)" fill-rule="nonzero">
            <g id="undraw_develop_app_re_bi4i" transform="translate(166.209455, 484.985869)">
                <g id="undraw_add_files_re_v09g" transform="translate(0.000000, 0.000000)">
                    <path d="M424.44336,0 L48.125,0 C21.55865,0.0299135765 0.0298473332,21.55877 -2.84217094e-14,48.12512 L-2.84217094e-14,490.00091 C0.0298528852,516.56725 21.5586604,538.096088 48.125,538.12598 L424.44336,538.12598 C451.0097,538.096088 472.538507,516.56725 472.56836,490.00091 L472.56836,48.12512 C472.538513,21.55877 451.00971,0.0299135765 424.44336,0 L424.44336,0 Z"
                          id="Path" fill="#E6E6E6"></path>
                    <path d="M424.44389,13.85419 L48.125,13.85419 C29.2064676,13.8753963 13.8752449,29.2065876 13.854,48.12512 L13.854,490.00091 C13.875267,508.919425 29.2064848,524.250589 48.125,524.27179 L424.44389,524.27179 C443.362239,524.25038 458.693194,508.919259 458.7144,490.00091 L458.7144,48.12512 C458.693216,29.2067536 443.362256,13.8756058 424.44389,13.85419 Z"
                          id="Path" fill="#FFFFFF"></path>
                    <circle id="Oval" fill="#181818" cx="463.9787" cy="504.03792" r="87.85039"></circle>
                    <path d="M505.99411,492.57917 L475.43745,492.57917 L475.43745,462.02251 C475.43745,455.694017 470.307193,450.56376 463.9787,450.56376 C457.650207,450.56376 452.51995,455.694017 452.51995,462.02251 L452.51995,492.57917 L421.96329,492.57917 C415.634797,492.57917 410.50454,497.709427 410.50454,504.03792 C410.50454,510.366413 415.634797,515.49667 421.96329,515.49667 L452.51995,515.49667 L452.51995,546.0533 C452.51995,552.381793 457.650207,557.51205 463.9787,557.51205 C470.307193,557.51205 475.43745,552.381793 475.43745,546.0533 L475.43745,515.49667 L505.99411,515.49667 C512.322603,515.49667 517.45286,510.366413 517.45286,504.03792 C517.45286,497.709427 512.322603,492.57917 505.99411,492.57917 L505.99411,492.57917 Z"
                          id="Path" fill="#FFFFFF"></path>
                    <path d="M325.80757,335.663815 L135.50589,335.663815 C132.64059,335.667005 129.991574,334.142914 128.557999,331.666394 C127.124424,329.189875 127.124424,326.137755 128.557999,323.661236 C129.991574,321.184716 132.64059,319.660625 135.50589,319.663815 L325.80757,319.663815 C330.230148,319.668752 333.812738,323.249027 333.812738,327.663815 C333.812738,332.078604 330.230148,335.658878 325.80757,335.663815 L325.80757,335.663815 Z"
                          id="Path" fill="#E6E6E6"></path>
                    <path d="M347.86578,370.711445 L124.50589,370.711445 C121.64059,370.714436 118.991574,369.2856 117.557999,366.963863 C116.124424,364.642126 116.124424,361.780764 117.557999,359.459027 C118.991574,357.13729 121.64059,355.708454 124.50589,355.711445 L347.86578,355.711445 C352.291853,355.711445 355.879895,359.069312 355.879895,363.211445 C355.879895,367.353578 352.291853,370.711445 347.86578,370.711445 L347.86578,370.711445 Z"
                          id="Path" fill="#E6E6E6"></path>
                </g>
                <circle id="edacdc74-dfad-4c1d-939b-d6c7a98a2115" fill="#E6E6E6" cx="239.469875" cy="172.848831"
                        r="106"></circle>
                <circle id="aec4df6d-8b06-4bbe-8d40-2c8bcc37cf40" fill="#FFFFFF" cx="239.469948" cy="172.848831"
                        r="91.6497195"></circle>
                <path d="M240.290545,121.014131 C211.295596,121.014131 187.790545,144.519181 187.790545,173.514131 C187.790545,202.50908 211.295596,226.014131 240.290545,226.014131 C269.285494,226.014131 292.790545,202.50908 292.790545,173.514131 C292.790545,144.519181 269.285494,121.014131 240.290545,121.014131 L240.290545,121.014131 Z M240.290545,137.014131 C248.850959,137.014131 255.790545,143.953717 255.790545,152.514131 C255.790545,161.074544 248.850959,168.014131 240.290545,168.014131 C231.730131,168.014131 224.790545,161.074544 224.790545,152.514131 C224.790545,148.403269 226.423551,144.460772 229.330369,141.553954 C232.237187,138.647136 236.179684,137.014131 240.290545,137.014131 L240.290545,137.014131 Z M240.290545,212.009751 C227.658793,211.952387 215.870188,205.679327 208.790545,195.247684 C209.042381,184.778144 229.789569,179.014131 240.290545,179.014131 C250.791521,179.014131 271.537245,184.778144 271.790545,195.247684 C264.704343,205.672628 252.920353,211.944871 240.290545,212.014131 L240.290545,212.009751 Z"
                      id="b468b121-27e1-4684-879a-d4a6b6510a38-1363" fill="#181818"></path>
            </g>
        </g>
    </g>
</svg>